<svg xmlns="http://www.w3.org/2000/svg" viewBox="0 0 16 16" fill="white"><path d="M8 0C5.829 0 5.556.01 4.703.048 3.85.088 3.269.222 2.76.42a3.917 3.917 0 0 0-1.417.923A3.927 3.927 0 0 0 .42 2.76C.222 3.268.087 3.85.048 4.703.01 5.555 0 5.827 0 8.001c0 2.172.01 2.444.048 3.297.04.852.174 1.433.372 1.942.205.526.478.972.923 1.417.444.445.89.719 1.416.923.51.198 1.09.333 1.942.372.853.038 1.125.049 3.297.049s2.444-.01 3.298-.049c.852-.04 1.433-.174 1.942-.372.526-.205.972-.478 1.417-.923.445-.444.718-.891.923-1.417.198-.51.333-1.09.372-1.942.038-.853.049-1.125.049-3.297s-.01-2.444-.049-3.298c-.04-.852-.174-1.433-.372-1.942a3.926 3.926 0 0 0-.923-1.417A3.926 3.926 0 0 0 13.24.42c-.51-.198-1.09-.333-1.942-.372C10.444.01 10.172 0 8 0zm0 1.442c2.136 0 2.389.007 3.232.046.78.035 1.204.166 1.486.275.373.145.64.319.92.599.28.28.453.546.598.92.11.282.24.705.275 1.485.039.843.047 1.096.047 3.232s-.008 2.389-.047 3.232c-.035.78-.166 1.203-.275 1.485a2.47 2.47 0 0 1-.599.919c-.28.28-.546.453-.92.598-.282.11-.705.24-1.485.276-.843.038-1.096.047-3.232.047s-2.39-.009-3.233-.047c-.78-.036-1.203-.166-1.485-.276a2.478 2.478 0 0 1-.92-.598 2.48 2.48 0 0 1-.6-.92c-.109-.282-.24-.705-.275-1.485-.038-.843-.046-1.096-.046-3.232s.008-2.389.046-3.232c.036-.78.166-1.204.276-1.486.145-.373.319-.64.599-.92.28-.28.546-.453.92-.598.282-.11.705-.24 1.485-.276.843-.038 1.096-.047 3.232-.047z"/><path d="M8 4.132a3.868 3.868 0 1 0 0 7.736 3.868 3.868 0 0 0 0-7.736zM8 10.5a2.5 2.5 0 1 1 0-5 2.5 2.5 0 0 1 0 5zm4.25-6.52a1.125 1.125 0 1 1-2.25 0 1.125 1.125 0 0 1 2.25 0z"/></svg>